<svg xmlns="http://www.w3.org/2000/svg" width="39" height="32" viewBox="0 0 39 32">
  <metadata><?xpacket begin="﻿" id="W5M0MpCehiHzreSzNTczkc9d"?>
<x:xmpmeta xmlns:x="adobe:ns:meta/" x:xmptk="Adobe XMP Core 5.6-c140 79.160451, 2017/05/06-01:08:21        ">
   <rdf:RDF xmlns:rdf="http://www.w3.org/1999/02/22-rdf-syntax-ns#">
      <rdf:Description rdf:about=""/>
   </rdf:RDF>
</x:xmpmeta>
                                                                                                    
                                                                                                    
                                                                                                    
                                                                                                    
                                                                                                    
                                                                                                    
                                                                                                    
                                                                                                    
                                                                                                    
                                                                                                    
                                                                                                    
                                                                                                    
                                                                                                    
                                                                                                    
                                                                                                    
                                                                                                    
                                                                                                    
                                                                                                    
                                                                                                    
                                                                                                    
                           
<?xpacket end="w"?></metadata>
<defs>
    <style>
      .cls-1 {
        fill: #fff;
        fill-rule: evenodd;
      }
    </style>
  </defs>
  <path class="cls-1" d="M39,3.787a16.141,16.141,0,0,1-4.6,1.274A8.116,8.116,0,0,0,37.923.59,16.021,16.021,0,0,1,32.84,2.553,7.958,7.958,0,0,0,26.993,0a8.043,8.043,0,0,0-8.006,8.08,8.169,8.169,0,0,0,.207,1.845A22.671,22.671,0,0,1,2.689,1.477,8.1,8.1,0,0,0,1.6,5.537c0,2.805,2.3,5.275,4.449,6.728-1.313-.043-2.739-0.407-2.739-1.016v0.11c0,3.911,1.874,7.174,5.537,7.92a11.707,11.707,0,0,1-2.554.285,10.533,10.533,0,0,1-1.729-.148,7.88,7.88,0,0,0,7.369,5.61,16.149,16.149,0,0,1-10,3.462A16.823,16.823,0,0,1,0,28.375,22.526,22.526,0,0,0,12.259,32c14.732,0,22.78-12.312,22.78-22.99,0-.352-0.016-0.7-0.031-1.048A16.32,16.32,0,0,0,39,3.787Z"/>
</svg>
