<svg xmlns="http://www.w3.org/2000/svg" width="44" height="37" viewBox="0 0 44 37">
  <metadata><?xpacket begin="﻿" id="W5M0MpCehiHzreSzNTczkc9d"?>
<x:xmpmeta xmlns:x="adobe:ns:meta/" x:xmptk="Adobe XMP Core 5.6-c140 79.160451, 2017/05/06-01:08:21        ">
   <rdf:RDF xmlns:rdf="http://www.w3.org/1999/02/22-rdf-syntax-ns#">
      <rdf:Description rdf:about=""/>
   </rdf:RDF>
</x:xmpmeta>
                                                                                                    
                                                                                                    
                                                                                                    
                                                                                                    
                                                                                                    
                                                                                                    
                                                                                                    
                                                                                                    
                                                                                                    
                                                                                                    
                                                                                                    
                                                                                                    
                                                                                                    
                                                                                                    
                                                                                                    
                                                                                                    
                                                                                                    
                                                                                                    
                                                                                                    
                                                                                                    
                           
<?xpacket end="w"?></metadata>
<defs>
    <style>
      .cls-1 {
        fill: #fff;
        fill-rule: evenodd;
      }
    </style>
  </defs>
  <path class="cls-1" d="M43.19,4.389L39.27,1.5a3.6,3.6,0,0,0-1.82-.6H6.55a3.6,3.6,0,0,0-1.82.6L0.81,4.389A2.234,2.234,0,0,0,0,5.988V11.06a1,1,0,0,0,1.01,1H42.99a1,1,0,0,0,1.01-1V5.988A2.234,2.234,0,0,0,43.19,4.389ZM2,35c0,0.894,2.1,2,3,2H40a2.341,2.341,0,0,0,2-2V15H2V35ZM25.665,19A3.936,3.936,0,0,0,22,21.826,3.937,3.937,0,0,0,18.335,19C16.457,19,15,20.5,15,22.945c0,3.345,3.218,4.8,5.41,5.982A4.371,4.371,0,0,1,22,30a4.373,4.373,0,0,1,1.59-1.073C25.783,27.746,29,26.29,29,22.945,29,20.5,27.543,19,25.665,19Z"/>
</svg>
