<svg xmlns="http://www.w3.org/2000/svg" width="38" height="39" viewBox="0 0 38 39">
  <metadata><?xpacket begin="﻿" id="W5M0MpCehiHzreSzNTczkc9d"?>
<x:xmpmeta xmlns:x="adobe:ns:meta/" x:xmptk="Adobe XMP Core 5.6-c140 79.160451, 2017/05/06-01:08:21        ">
   <rdf:RDF xmlns:rdf="http://www.w3.org/1999/02/22-rdf-syntax-ns#">
      <rdf:Description rdf:about=""/>
   </rdf:RDF>
</x:xmpmeta>
                                                                                                    
                                                                                                    
                                                                                                    
                                                                                                    
                                                                                                    
                                                                                                    
                                                                                                    
                                                                                                    
                                                                                                    
                                                                                                    
                                                                                                    
                                                                                                    
                                                                                                    
                                                                                                    
                                                                                                    
                                                                                                    
                                                                                                    
                                                                                                    
                                                                                                    
                                                                                                    
                           
<?xpacket end="w"?></metadata>
<defs>
    <style>
      .cls-1 {
        fill: #fff;
        fill-rule: evenodd;
      }
    </style>
  </defs>
  <path class="cls-1" d="M4.4,38.961H0.031V38.125c0-6.267-.094-12.519.027-18.786C0.206,11.029,4.186,5.174,11.5,1.636A16.306,16.306,0,0,1,19.072,0,19.144,19.144,0,0,1,37.777,16.459,19.332,19.332,0,0,1,22.9,38.481a23.717,23.717,0,0,1-4.4.48c-2.689.069-5.379,0.028-8.149,0.028-0.013-.233-0.04-0.453-0.04-0.658,0.013-6.28.013-12.56,0.04-18.855a8.641,8.641,0,0,1,17.212-1.248,8.564,8.564,0,0,1-3.4,8.365,8.267,8.267,0,0,1-8.714.987c-0.161-.069-0.323-0.137-0.565-0.233-0.027.247-.067,0.439-0.067,0.631,0,1.714.013,3.428-.013,5.142a0.721,0.721,0,0,0,.659.836C23.644,36.164,32.2,30.364,33.42,21.793A14.886,14.886,0,0,0,22.1,4.913,14.621,14.621,0,0,0,4.549,17.639a19.738,19.738,0,0,0-.121,2.18c-0.013,6.075,0,12.149,0,18.238C4.4,38.344,4.4,38.619,4.4,38.961Z"/>
</svg>
